<svg width="32" height="32" viewBox="0 0 32 32" fill="none" xmlns="http://www.w3.org/2000/svg">
<circle cx="16" cy="16" r="15" fill="#D9D9D9" stroke="white" stroke-width="2"/>
<g clip-path="url(#clip0_3_993)">
<path d="M21.6147 12.5305L19.4846 10.3857C19.3438 10.2454 19.1533 10.1667 18.9548 10.1667C18.7562 10.1667 18.5657 10.2454 18.425 10.3857L10.8734 17.9397L10.1839 20.9206C10.1602 21.0296 10.161 21.1425 10.1863 21.2511C10.2117 21.3597 10.2609 21.4613 10.3305 21.5484C10.4001 21.6355 10.4882 21.7059 10.5884 21.7545C10.6886 21.8031 10.7984 21.8287 10.9097 21.8294C10.9616 21.8347 11.0139 21.8347 11.0657 21.8294L14.074 21.1387L21.6147 13.592C21.7547 13.451 21.8334 13.2602 21.8334 13.0612C21.8334 12.8623 21.7547 12.6715 21.6147 12.5305ZM13.7111 20.4844L10.8916 21.0769L11.5339 18.3069L17.1839 12.6686L19.3612 14.8498L13.7111 20.4844ZM19.8475 14.3227L17.6702 12.1415L18.933 10.8838L21.074 13.0649L19.8475 14.3227Z" fill="#313131"/>
</g>
<defs>
<clipPath id="clip0_3_993">
<rect width="20" height="20" fill="white" transform="translate(6 6)"/>
</clipPath>
</defs>
</svg>
