<svg width="17" height="21" viewBox="0 0 17 21" fill="none" xmlns="http://www.w3.org/2000/svg">
<g id="Group 36">
<path id="Rectangle 40" d="M16 19.9999L16 18.5499C16 17.5732 16 17.0849 15.8874 16.6856C15.604 15.681 14.8189 14.8958 13.8143 14.6125C13.415 14.4999 12.9266 14.4999 11.95 14.4999H5.05C4.07337 14.4999 3.58505 14.4999 3.18568 14.6125C2.18108 14.8958 1.39596 15.681 1.11263 16.6856C1 17.0849 0.999999 17.5732 0.999999 18.5499L0.999999 19.9999M13.2 6.06C13.2 8.30477 11.3196 10.1245 9 10.1245C6.6804 10.1245 4.8 8.30477 4.8 6.06C4.8 3.81523 6.6804 1.99548 9 1.99548C11.3196 1.99548 13.2 3.81523 13.2 6.06Z" stroke="#FF5A5F" stroke-width="2" stroke-linecap="round" stroke-linejoin="round"/>
</g>
</svg>
