<svg width="17" height="17" viewBox="0 0 17 17" fill="none" xmlns="http://www.w3.org/2000/svg">
<g id="more-horizontal">
<path id="Vector" d="M7.79171 8.49996C7.79171 8.89116 8.10884 9.20829 8.50004 9.20829C8.89124 9.20829 9.20837 8.89116 9.20837 8.49996C9.20837 8.10876 8.89124 7.79163 8.50004 7.79163C8.10884 7.79163 7.79171 8.10876 7.79171 8.49996Z" stroke="#AFAFAF" stroke-width="1.61905" stroke-linecap="round" stroke-linejoin="round"/>
<path id="Vector_2" d="M7.79171 13.4583C7.79171 13.8495 8.10884 14.1667 8.50004 14.1667C8.89124 14.1667 9.20837 13.8495 9.20837 13.4583C9.20837 13.0671 8.89124 12.75 8.50004 12.75C8.10884 12.75 7.79171 13.0671 7.79171 13.4583Z" stroke="#AFAFAF" stroke-width="1.61905" stroke-linecap="round" stroke-linejoin="round"/>
<path id="Vector_3" d="M7.79171 3.54171C7.79171 3.93291 8.10884 4.25004 8.50004 4.25004C8.89124 4.25004 9.20837 3.93291 9.20837 3.54171C9.20837 3.15051 8.89124 2.83337 8.50004 2.83337C8.10884 2.83337 7.79171 3.15051 7.79171 3.54171Z" stroke="#AFAFAF" stroke-width="1.61905" stroke-linecap="round" stroke-linejoin="round"/>
</g>
</svg>
