<svg width="14" height="20" viewBox="0 0 14 20" fill="none" xmlns="http://www.w3.org/2000/svg">
<path id="Line 13" d="M1 5.00006L1 13.2219C1 16.6825 1 18.4128 1.98893 18.7712C2.97786 19.1296 4.0864 17.801 6.30348 15.1438L7 14.309L7.69652 15.1438C9.9136 17.801 11.0221 19.1296 12.0111 18.7712C13 18.4128 13 16.6825 13 13.2219V5.00006C13 3.11444 13 2.17163 12.4142 1.58585C11.8284 1.00006 10.8856 1.00006 9 1.00006L5 1.00006C3.11438 1.00006 2.17157 1.00006 1.58579 1.58585C1 2.17163 1 3.11444 1 5.00006Z" stroke="#FF5A5F" stroke-width="2" stroke-linecap="round" stroke-linejoin="round"/>
</svg>
